<svg width="64" height="64" viewBox="0 0 64 64" fill="none" xmlns="http://www.w3.org/2000/svg">
<path d="M20.769 46.765L30.609 56.611L57.6826 29.5312H37.9966L20.769 46.765Z" fill="#555555"/>
<path d="M37.9967 0H57.6827L15.8461 41.8427L6 31.9967L37.9967 0Z" fill="#555555"/>
<path d="M30.6089 56.6117L37.9965 63.9932H57.6825L40.455 46.7656L30.6089 56.6117Z" fill="#3C3D3C"/>
<path d="M45.2116 51.5531L40.455 46.7656L30.6089 56.6117L45.2116 51.5531Z" fill="url(#paint0_linear_301_13)"/>
<path d="M20.7681 46.7624L30.6144 36.916L40.4613 46.7624L30.6144 56.6088L20.7681 46.7624Z" fill="#555555"/>
<path d="M57.6827 29.5321L40.4551 46.7658L57.6827 63.9995H37.9967L20.763 46.7658L37.9967 29.5321H57.6827ZM37.9967 0L6 31.9967L15.8461 41.8427L57.6827 0H37.9967V0Z" fill="url(#paint1_radial_301_13)"/>
<defs>
<linearGradient id="paint0_linear_301_13" x1="33.4823" y1="58.5118" x2="40.8154" y2="51.1787" gradientUnits="userSpaceOnUse">
<stop stop-color="#1A237E" stop-opacity="0.4"/>
<stop offset="1" stop-color="#1A237E" stop-opacity="0"/>
</linearGradient>
<radialGradient id="paint1_radial_301_13" cx="0" cy="0" r="1" gradientUnits="userSpaceOnUse" gradientTransform="translate(7.45194 4.36202) scale(78.2956)">
<stop stop-color="white" stop-opacity="0.1"/>
<stop offset="1" stop-color="white" stop-opacity="0"/>
</radialGradient>
</defs>
</svg>
