<svg width="64" height="64" viewBox="0 0 64 64" fill="none" xmlns="http://www.w3.org/2000/svg">
<path d="M16.5616 8.83047C16.5616 4.52318 17.743 2.17999 24.2657 1.0642C28.694 0.30537 34.3719 0.210516 39.6682 1.0642C43.8514 1.73924 47.3723 4.78561 47.3723 8.83047V23.0411C47.3723 27.209 43.9539 30.623 39.6682 30.623H24.2657C19.0382 30.623 14.6325 34.9806 14.6325 39.907V46.725H9.33656C4.85682 46.725 2.2486 43.5671 1.15292 39.1481C-0.325013 33.2116 -0.262274 29.6745 1.15292 23.989C2.3799 19.0291 6.30049 16.4121 10.7805 16.4121H31.9697V14.515H16.5613V8.83016L16.5616 8.83047Z" fill="#555555"/>
<path d="M47.3727 54.3067C47.3727 58.614 43.5491 60.7956 39.6686 61.8836C33.8306 63.5239 29.1452 63.2728 24.2661 61.8836C20.1912 60.7232 16.562 58.3519 16.562 54.3067V40.096C16.562 36.0063 20.0489 32.5141 24.2661 32.5141H39.6686C44.799 32.5141 49.3017 28.1793 49.3017 23.0405V16.4121H55.077C59.5626 16.4121 61.6744 19.6703 62.781 23.989C64.3217 29.9869 64.3903 34.4725 62.781 39.1482C61.2232 43.6897 59.5567 46.725 55.077 46.725H31.9701V48.6221H47.3727V54.307V54.3067Z" fill="#3C3D3C"/>
<path d="M20.4136 7.88857C20.4136 6.31527 21.7033 5.04297 23.3015 5.04297C24.8936 5.04297 26.1895 6.31495 26.1895 7.88857C26.1895 9.45681 24.894 10.7285 23.3015 10.7285C21.7039 10.7285 20.4136 9.4565 20.4136 7.88857ZM37.7446 55.2514C37.7446 53.6832 39.0401 52.4115 40.6325 52.4115C42.2301 52.4115 43.5205 53.6835 43.5205 55.2514C43.5205 56.8247 42.2308 58.097 40.6325 58.097C39.0404 58.097 37.7446 56.825 37.7446 55.2514Z" fill="#919090"/>
</svg>
