<svg width="64" height="64" viewBox="0 0 64 64" fill="none" xmlns="http://www.w3.org/2000/svg">
<path d="M32.0002 37.6605C35.1565 37.6605 37.7152 35.1018 37.7152 31.9455C37.7152 28.7892 35.1565 26.2305 32.0002 26.2305C28.8439 26.2305 26.2852 28.7892 26.2852 31.9455C26.2852 35.1018 28.8439 37.6605 32.0002 37.6605Z" fill="#585858"/>
<path fill-rule="evenodd" clip-rule="evenodd" d="M32.0004 20.3262C39.6736 20.3262 46.8018 21.4272 52.1765 23.2775C58.6521 25.5069 62.6336 28.8861 62.6336 31.946C62.6336 35.1346 58.414 38.7246 51.46 41.0286C46.2026 42.7705 39.2843 43.6798 32.0004 43.6798C24.5325 43.6798 17.4608 42.8263 12.1442 41.0095C5.41766 38.7104 1.36621 35.0739 1.36621 31.946C1.36621 28.911 5.16772 25.5578 11.5524 23.3318C16.947 21.451 24.2513 20.3262 31.9994 20.3262H32.0004Z" stroke="#3C3D3C" stroke-width="2.73408"/>
<path fill-rule="evenodd" clip-rule="evenodd" d="M21.8851 26.17C25.7185 19.523 30.2332 13.8981 34.5211 10.1665C39.6874 5.67058 44.6039 3.90983 47.2544 5.4383C50.0168 7.03124 51.0186 12.4801 49.5405 19.6551C48.4241 25.0797 45.7545 31.5269 42.1156 37.8367C38.3847 44.306 34.1127 50.0056 29.8832 53.7026C24.5313 58.381 19.357 60.0741 16.6474 58.5115C14.0182 56.9963 13.0127 52.0271 14.274 45.3841C15.3398 39.7713 18.0143 32.882 21.8839 26.1699L21.8851 26.17Z" stroke="#3C3D3C" stroke-width="2.73408"/>
<path fill-rule="evenodd" clip-rule="evenodd" d="M21.8948 37.8541C18.0506 31.2146 15.4333 24.4928 14.3408 18.9144C13.0257 12.1931 13.9555 7.05415 16.6037 5.52125C19.3633 3.92363 24.5844 5.77688 30.0622 10.6408C34.2039 14.3181 38.4567 19.8498 42.1062 26.1536C45.8478 32.6167 48.652 39.1644 49.7429 44.675C51.1233 51.6484 50.0061 56.9765 47.299 58.5436C44.6723 60.0642 39.8657 58.4543 34.7404 54.0438C30.41 50.3174 25.777 44.5596 21.8948 37.854V37.8541Z" stroke="#3C3D3C" stroke-width="2.73408"/>
</svg>
