<?xml version="1.0" standalone="no"?>
<!DOCTYPE svg PUBLIC "-//W3C//DTD SVG 20010904//EN"
 "http://www.w3.org/TR/2001/REC-SVG-20010904/DTD/svg10.dtd">
<svg version="1.0" xmlns="http://www.w3.org/2000/svg"
 width="500.000000pt" height="887.000000pt" viewBox="0 0 500.000000 887.000000"
 preserveAspectRatio="xMidYMid meet">
<metadata>
Created by potrace 1.16, written by Peter Selinger 2001-2019
</metadata>
<g transform="translate(0.000000,887.000000) scale(0.100000,-0.100000)"
fill="#000000" stroke="none">
<path d="M3389 8848 c13 -36 -32 -98 -71 -98 -10 0 -18 -4 -18 -9 0 -5 -16
-12 -35 -15 -23 -5 -32 -11 -29 -20 4 -10 -2 -12 -20 -9 -16 3 -26 1 -26 -6 0
-7 5 -9 11 -5 8 5 10 -4 7 -30 -2 -21 0 -36 7 -36 5 0 4 -4 -3 -8 -7 -5 -10
-16 -6 -26 5 -13 14 -15 43 -10 27 4 32 3 21 -5 -8 -6 -26 -11 -40 -12 -14 0
-47 -7 -75 -14 l-50 -14 65 6 c78 6 76 -1 -6 -21 l-59 -15 88 2 c48 1 87 -1
87 -5 0 -5 -7 -9 -15 -9 -8 -1 -23 -2 -32 -3 -10 -1 -24 -5 -31 -10 -8 -5 -33
-10 -57 -11 -24 -2 -49 -6 -56 -10 -7 -5 -28 -10 -48 -12 -67 -7 -44 -13 55
-13 54 0 106 -4 114 -10 8 -5 19 -5 25 0 17 14 105 24 105 11 0 -7 -20 -11
-51 -11 -27 0 -48 -4 -45 -9 3 -5 -26 -12 -64 -15 -38 -4 -72 -12 -76 -18 -4
-6 -9 -5 -15 3 -7 11 -12 12 -29 2 -22 -15 -33 -17 -27 -5 3 4 -171 7 -386 7
-418 0 -1567 11 -2239 22 l-408 6 0 -50 0 -51 222 -6 c123 -3 464 -8 758 -11
807 -8 1343 -15 1462 -20 59 -3 228 -5 375 -5 147 -1 262 -5 255 -9 -7 -4 -40
-6 -73 -4 -45 3 -59 1 -57 -9 2 -9 -11 -13 -44 -12 -71 0 -58 -15 15 -18 47
-2 62 -7 62 -18 0 -9 11 -15 30 -17 l30 -2 -24 18 -25 19 27 -5 c15 -3 25 -9
22 -13 -3 -5 1 -11 7 -13 10 -4 10 -6 0 -6 -7 -1 -10 -6 -6 -12 4 -8 0 -8 -15
0 -14 8 -21 8 -21 1 0 -5 -8 -10 -17 -11 -15 0 -15 -2 2 -9 17 -7 17 -9 3 -9
-10 -1 -18 -7 -18 -13 -1 -8 -6 -6 -14 5 -9 12 -16 14 -21 8 -3 -6 -21 -12
-38 -12 -18 -1 -24 -3 -14 -6 9 -2 17 -9 17 -14 0 -5 10 -9 23 -9 18 0 19 2 7
10 -9 6 -10 10 -3 10 6 0 14 -4 17 -9 4 -5 19 -3 35 5 30 15 75 9 49 -7 -7 -5
-23 -9 -35 -9 -15 0 -23 -6 -24 -17 0 -11 -3 -13 -6 -5 -2 6 -14 12 -26 11
-21 0 -21 -1 -2 -8 17 -7 16 -8 -9 -15 -19 -5 -36 -2 -52 9 -30 19 -80 19
-135 -1 -55 -19 -121 -11 -187 22 -26 13 -65 24 -87 24 -45 0 -133 -28 -161
-51 -14 -11 -18 -11 -22 -1 -3 10 -7 9 -17 -4 -14 -19 -89 -30 -78 -10 4 6 0
6 -9 -2 -9 -7 -33 -15 -54 -18 -44 -5 -70 -20 -117 -69 -20 -20 -44 -35 -57
-35 -16 0 -41 -18 -75 -55 -28 -30 -55 -55 -61 -55 -7 0 -19 -10 -28 -22 -9
-13 -14 -17 -11 -10 12 23 -10 12 -29 -15 -16 -26 -16 -20 1 25 10 27 -2 11
-31 -41 -14 -26 -26 -58 -26 -70 0 -13 -6 -32 -14 -43 -14 -18 -15 -18 -21 -1
-4 9 -12 17 -17 17 -6 0 -5 -6 2 -15 6 -8 8 -20 4 -26 -4 -7 -3 -9 3 -6 6 4
13 1 16 -7 4 -10 0 -12 -14 -9 -13 4 -19 0 -19 -10 0 -9 -7 -23 -15 -31 -9 -9
-15 -21 -14 -28 1 -7 1 -22 0 -33 -2 -18 -3 -18 -12 4 -16 42 -18 18 -2 -39
19 -72 23 -100 13 -100 -5 0 -7 -17 -5 -37 3 -34 2 -36 -10 -20 -11 15 -17 16
-34 7 -12 -6 -21 -9 -22 -8 0 2 -3 14 -5 27 -7 36 -14 39 -14 5 0 -28 -1 -29
-50 -29 -27 0 -50 -1 -50 -3 0 -13 41 -41 65 -45 28 -5 28 -5 -5 -5 -63 0 -70
-2 -70 -19 0 -14 -9 -18 -42 -18 -24 0 -46 5 -50 10 -5 6 -8 5 -8 -4 0 -7 -6
-11 -15 -8 -8 4 -17 2 -20 -3 -6 -10 7 -14 32 -11 6 1 14 -2 17 -7 3 -5 -9 -7
-27 -6 -18 2 -52 4 -75 5 -40 1 -43 3 -39 25 3 15 0 24 -9 24 -7 0 -14 6 -17
13 -3 9 -8 8 -22 -3 -10 -8 -16 -10 -12 -3 5 7 -1 14 -15 17 -13 3 1 3 30 1
46 -4 52 -2 42 10 -7 8 -17 12 -24 8 -6 -3 -7 -2 -3 3 5 5 12 9 15 10 4 0 15
4 24 8 20 9 41 -1 32 -15 -3 -6 3 -5 15 3 17 11 25 11 42 0 12 -8 18 -9 15 -3
-4 6 15 8 54 6 33 -2 60 -1 60 4 0 9 -99 18 -294 28 -107 5 -118 4 -105 -9 10
-11 16 -13 22 -4 5 7 7 3 5 -9 -2 -14 5 -24 22 -32 l25 -11 -28 -1 c-16 -1
-26 -5 -23 -10 3 -4 16 -7 29 -6 18 2 23 -2 23 -21 0 -15 -3 -21 -10 -14 -5 5
-16 5 -25 1 -9 -5 -24 -7 -33 -6 -21 4 -24 -11 -5 -19 6 -3 3 -4 -8 -3 -11 2
-19 9 -17 16 2 8 -3 11 -11 8 -8 -3 -20 0 -26 6 -9 9 -11 8 -6 -5 6 -16 1 -17
-39 -15 -32 2 -46 -1 -46 -10 0 -7 7 -13 15 -13 8 0 15 -4 15 -10 0 -19 -37
-10 -55 14 -21 27 -55 24 -55 -5 0 -11 -6 -19 -14 -19 -8 0 -12 8 -9 23 4 21
1 23 -47 25 -32 1 -49 -2 -45 -8 3 -5 1 -10 -4 -10 -6 0 -11 5 -11 10 0 6 -5
10 -11 10 -5 0 -7 -6 -3 -12 6 -10 5 -10 -8 -1 -8 7 -18 10 -21 6 -4 -3 -7 -1
-7 6 0 9 -4 8 -15 -2 -17 -18 -84 -14 -96 5 -6 9 -9 9 -9 1 0 -8 -27 -11 -90
-9 -78 2 -87 1 -70 -11 11 -8 25 -11 30 -8 13 8 42 -14 34 -26 -3 -5 2 -6 10
-3 9 3 12 12 8 22 -5 15 -4 15 11 3 10 -8 23 -10 34 -5 23 10 103 12 103 2 0
-4 7 -5 15 -2 8 4 15 1 15 -4 0 -6 -8 -13 -17 -15 -11 -3 -7 -5 10 -6 17 -1
27 4 27 13 0 9 7 12 20 9 17 -4 17 -7 5 -20 -8 -8 -27 -16 -42 -17 -16 -2 -31
-4 -35 -5 -16 -2 -7 -19 12 -24 12 -3 18 -1 14 5 -4 5 4 5 16 -2 12 -6 30 -10
40 -7 12 3 20 -2 23 -14 3 -11 1 -19 -4 -19 -5 0 -9 5 -9 10 0 13 -47 13 -55
0 -8 -13 -75 -10 -75 4 0 6 -5 5 -12 -2 -7 -7 -24 -12 -38 -12 -14 0 -31 5
-38 12 -8 8 -12 9 -12 1 0 -6 -3 -19 -6 -28 -6 -14 4 -16 75 -14 44 1 81 6 81
10 0 5 10 9 23 8 21 0 21 -1 2 -9 -16 -7 -12 -9 20 -10 55 -2 139 -11 144 -15
2 -2 -73 -3 -167 -2 -159 2 -172 1 -199 -19 -27 -20 -53 -22 -53 -3 0 4 7 6
15 3 8 -4 15 -1 15 4 0 14 -27 20 -70 16 -19 -1 -37 -3 -40 -4 -3 0 9 -7 25
-15 l30 -15 -33 6 c-33 6 -67 -10 -56 -27 3 -5 0 -9 -6 -9 -7 0 -10 7 -7 15 7
18 -11 30 -38 27 -12 -2 -32 2 -45 7 -21 9 -15 10 32 9 32 -1 61 2 65 5 3 4
-24 7 -60 7 -51 0 -67 3 -67 14 0 11 7 13 30 6 18 -5 32 -5 35 1 4 5 -2 9 -12
9 -10 0 -28 3 -40 6 -17 5 -23 2 -23 -10 0 -8 -6 -14 -12 -12 -7 1 -10 1 -5
-1 17 -10 5 -31 -23 -36 l-30 -6 0 -3496 0 -3495 483 2 482 3 8 85 c4 47 16
121 27 164 11 44 20 96 20 117 0 44 33 208 54 269 13 37 13 62 5 145 -9 89 -8
108 11 180 13 49 25 135 30 220 4 77 13 155 20 173 12 31 9 116 -3 129 -4 3
-22 -2 -41 -11 -19 -9 -43 -16 -53 -16 -10 0 -23 -4 -28 -9 -12 -11 -34 -14
-92 -12 -52 1 -87 30 -78 64 14 48 62 102 96 108 29 5 26 7 -21 8 -270 10
-337 17 -370 41 -109 77 -190 468 -190 910 0 197 12 437 26 535 9 65 35 190
80 392 3 15 10 114 14 218 5 105 13 217 19 250 6 33 18 112 26 175 34 253 93
419 197 555 47 60 65 75 134 109 91 45 162 74 219 89 178 46 315 95 482 173
109 50 226 94 254 94 11 0 38 17 62 38 53 48 88 72 105 72 9 0 5 -11 -12 -31
-31 -37 -34 -86 -7 -144 22 -47 65 -90 81 -80 6 3 9 1 8 -6 -5 -18 101 -77
162 -90 72 -16 110 -35 109 -57 0 -9 -6 -44 -13 -76 -12 -56 -11 -62 10 -100
33 -59 90 -237 114 -352 11 -54 24 -112 29 -129 l9 -30 1 31 c1 17 -2 34 -6
38 -14 13 -31 150 -20 157 5 4 3 10 -5 15 -18 11 -34 54 -20 54 5 0 12 10 15
21 4 17 3 19 -6 10 -14 -14 -30 -15 -22 -1 4 6 2 16 -4 23 -5 7 -15 26 -21 42
-10 27 -10 28 7 14 26 -23 47 -34 40 -22 -4 6 0 14 9 17 8 3 12 2 9 -3 -3 -5
-1 -12 4 -15 11 -7 23 22 15 35 -3 5 0 9 6 9 7 0 9 7 6 16 -3 8 -2 12 4 9 6
-3 10 1 10 10 0 9 4 13 10 10 5 -3 20 -1 32 5 21 10 22 10 5 -3 -27 -22 -4
-30 38 -13 19 8 40 25 45 38 10 23 10 23 6 -2 -9 -50 -50 -149 -59 -143 -6 3
-7 1 -3 -5 4 -7 2 -12 -3 -12 -6 0 -10 -3 -9 -7 3 -10 -23 -76 -32 -83 -4 -3
-15 -30 -25 -60 -21 -63 -30 -123 -16 -100 6 8 8 17 5 21 -6 11 31 109 66 174
45 83 90 204 90 241 0 18 5 34 10 36 6 2 -4 30 -20 62 -44 85 -41 90 55 92 95
1 160 26 219 82 96 92 120 176 71 248 -14 20 -25 44 -24 53 0 10 4 7 10 -8 5
-13 35 -50 67 -82 42 -42 70 -61 107 -72 28 -9 109 -36 180 -60 72 -25 168
-56 215 -68 96 -27 275 -127 325 -182 17 -18 47 -41 68 -52 109 -57 239 -193
282 -294 25 -61 62 -186 70 -241 2 -14 15 -86 30 -160 48 -252 73 -415 85
-540 6 -69 22 -203 36 -299 26 -181 30 -276 18 -471 -5 -80 -12 -126 -25 -151
-11 -22 -25 -90 -34 -170 -9 -74 -19 -152 -22 -174 -21 -176 -71 -341 -145
-487 -78 -153 -118 -175 -300 -164 -75 4 -108 3 -108 -4 0 -13 37 -145 85
-305 18 -60 40 -139 49 -175 30 -124 61 -392 70 -602 1 -22 10 -46 23 -60 12
-13 27 -44 34 -70 11 -39 10 -55 -3 -104 -10 -35 -13 -64 -8 -74 5 -8 13 -45
19 -80 7 -36 14 -77 17 -93 l6 -27 449 0 449 0 0 4435 0 4435 -810 0 -809 0 8
-22z m-1130 -1529 c9 5 41 7 71 4 30 -2 79 -4 108 -4 28 0 52 -4 52 -9 0 -5 7
-7 15 -4 8 4 17 -1 21 -10 4 -11 13 -15 26 -10 12 4 18 2 14 -4 -5 -9 5 -11
77 -15 28 -1 37 -21 15 -31 -7 -3 4 -5 24 -3 23 1 45 -5 57 -15 14 -12 22 -13
31 -5 10 9 11 9 5 -2 -6 -11 -4 -13 9 -8 10 4 15 3 11 -3 -3 -6 0 -10 7 -10 9
0 9 -3 -2 -10 -8 -5 -10 -10 -4 -10 6 0 14 3 18 7 3 4 13 8 22 9 9 1 1 -11
-18 -30 -18 -19 -36 -32 -40 -30 -4 3 -10 -1 -14 -7 -5 -8 -3 -9 6 -4 10 6 12
4 7 -8 -8 -21 -6 -21 29 -2 21 11 24 15 11 15 -22 0 -15 13 22 39 l28 20 -4
-24 c-4 -20 -2 -23 18 -18 18 5 21 3 16 -10 -4 -11 -1 -17 8 -17 8 0 15 -6 15
-13 0 -7 7 -22 15 -33 13 -17 13 -15 0 18 -20 49 -19 56 4 32 10 -10 17 -22
14 -26 -2 -5 0 -8 5 -8 14 0 23 -28 28 -85 5 -58 -11 -101 -33 -84 -7 6 -13 9
-13 5 0 -4 -11 1 -25 10 -23 15 -25 15 -25 0 0 -9 6 -16 13 -17 9 0 9 -2 -1
-6 -6 -2 -10 -9 -7 -13 7 -11 -18 -6 -60 10 -49 19 -156 25 -166 9 -7 -11 -9
-11 -9 -1 0 10 -5 10 -22 -2 -12 -9 -30 -16 -39 -16 -9 0 -22 -7 -29 -15 -7
-9 -19 -14 -27 -11 -7 3 -13 1 -13 -4 0 -6 -9 -10 -19 -10 -14 0 -19 -6 -16
-18 2 -10 -1 -25 -6 -33 -7 -11 -9 -9 -9 8 0 12 -6 25 -12 29 -7 4 -10 4 -6 0
13 -15 -13 -66 -34 -66 -15 0 -19 5 -15 20 3 11 1 20 -3 20 -5 0 -11 9 -15 19
-4 12 -12 18 -21 14 -7 -3 -14 -1 -14 5 0 15 -32 24 -41 11 -4 -8 -9 -5 -13 9
-7 21 -36 39 -36 21 0 -6 -5 -7 -10 -4 -6 4 -8 10 -5 15 3 5 -9 7 -27 5 -17
-3 -37 0 -44 6 -7 6 -28 9 -46 8 -18 -2 -39 0 -46 4 -8 6 -10 3 -5 -8 5 -15 3
-15 -15 -4 l-21 13 22 21 c30 28 80 96 70 94 -19 -3 -22 2 -13 27 7 16 7 23 0
19 -6 -3 -10 1 -10 10 0 11 5 15 15 11 8 -3 15 -1 15 3 0 5 -7 12 -16 15 -14
5 -14 9 -3 23 8 9 9 14 3 10 -7 -4 -17 -1 -23 7 -9 11 -8 18 4 30 9 9 14 20
10 25 -3 5 5 17 17 25 12 9 18 16 13 16 -5 0 0 7 11 15 18 15 18 15 0 8 -13
-4 -17 -3 -12 5 4 7 14 12 22 12 8 0 14 4 14 10 0 5 6 7 14 4 8 -3 18 0 22 7
6 10 9 10 12 1 2 -8 9 -9 21 -3z m209 -557 c-11 -13 -10 -15 4 -9 19 7 43 -24
30 -38 -4 -5 -1 -5 5 -1 22 12 35 -34 26 -89 -7 -40 -5 -62 10 -110 23 -71 22
-69 37 -60 9 6 9 10 -1 17 -10 6 -7 7 9 3 16 -5 22 -2 22 8 0 20 20 27 43 15
23 -12 37 -1 17 13 -17 11 53 4 110 -11 54 -15 107 -12 114 5 3 8 15 15 27 15
18 0 21 5 17 34 l-4 35 35 -15 c32 -13 36 -13 56 6 l22 21 11 -28 c12 -31 22
-86 27 -149 3 -35 -1 -46 -26 -70 -16 -15 -29 -34 -29 -41 0 -7 -9 -21 -19
-30 -11 -9 -17 -21 -14 -26 4 -7 -1 -8 -13 -3 -10 4 -15 4 -11 0 11 -11 -23
-43 -39 -37 -8 3 -24 -3 -34 -12 -13 -11 -20 -14 -20 -6 0 7 -4 9 -10 6 -5 -3
-10 -1 -10 4 0 6 -7 11 -15 11 -8 0 -15 -6 -15 -12 0 -10 -3 -9 -9 1 -7 10
-13 11 -31 1 -20 -11 -21 -10 -16 12 3 12 3 17 0 11 -7 -15 -40 -17 -49 -4 -3
5 3 11 12 13 13 3 10 6 -9 10 -15 3 -25 1 -22 -3 3 -5 2 -14 -2 -20 -4 -8 -9
-7 -15 2 -7 11 -11 11 -21 -3 -17 -23 -44 -17 -75 16 -18 20 -32 26 -47 22
-11 -3 -28 -6 -36 -6 -13 0 -13 -1 0 -10 9 -6 10 -10 3 -10 -6 0 -15 5 -18 10
-3 6 -13 10 -21 10 -8 0 -12 -4 -9 -10 3 -5 1 -10 -4 -10 -6 0 -11 5 -11 12 0
6 -6 4 -13 -6 -13 -17 -15 -17 -42 8 -15 14 -31 26 -35 26 -11 0 11 94 23 102
6 3 12 37 12 75 1 38 7 78 13 90 6 11 8 23 5 27 -4 3 -8 22 -10 42 -2 21 -8
45 -13 54 -6 11 -5 21 2 28 7 7 8 12 4 12 -5 0 -2 8 5 17 12 15 12 16 -1 8
-13 -7 -13 -6 -2 7 7 9 26 18 43 22 20 4 28 10 23 17 -4 8 -3 9 5 5 9 -6 9
-11 -1 -24z m-196 -239 c-6 -2 -10 -9 -7 -14 3 -4 -2 -20 -11 -34 -15 -23 -15
-25 1 -25 11 0 15 5 12 14 -4 10 -1 13 9 9 21 -8 17 -34 -7 -40 -15 -4 -17 -8
-8 -14 16 -9 22 -46 9 -54 -5 -3 -7 -12 -3 -20 3 -8 0 -15 -6 -15 -7 0 -7 -8
0 -27 6 -15 9 -43 7 -63 -3 -42 21 -110 39 -110 9 0 8 -6 -4 -18 -10 -11 -21
-17 -25 -15 -5 2 -8 -1 -8 -7 0 -6 -5 -8 -12 -4 -6 4 -8 3 -5 -2 3 -6 2 -16
-4 -24 -5 -9 -9 -10 -9 -4 0 7 -7 15 -16 18 -8 3 -12 2 -9 -4 3 -6 -3 -10 -15
-10 -17 0 -19 3 -11 17 7 13 5 23 -7 38 -9 11 -13 17 -8 13 10 -9 41 30 32 39
-3 3 -8 -2 -12 -11 -9 -22 -23 -20 -45 8 -13 16 -27 23 -44 21 -14 -1 -28 2
-31 6 -3 5 0 9 6 9 6 0 -1 11 -16 25 -24 22 -23 36 2 18 5 -5 -3 4 -18 18 -15
14 -28 32 -28 40 0 8 -14 22 -30 31 -17 10 -33 25 -37 35 -4 10 -10 21 -15 24
-5 3 -11 29 -13 57 l-6 52 53 -5 c29 -3 68 -7 86 -9 18 -3 57 4 86 14 38 13
58 15 71 8 13 -8 20 -7 27 6 5 9 17 16 26 15 11 0 12 -3 4 -6z"/>
<path d="M3701 3294 c-29 -19 -63 -44 -75 -56 -29 -27 -124 -98 -132 -98 -3 0
-4 14 0 30 3 18 1 30 -5 30 -6 0 -3 7 6 16 9 10 13 24 10 36 -4 10 -2 25 4 32
9 10 7 15 -6 20 -10 4 -14 4 -11 0 4 -4 3 -15 -2 -25 -6 -10 -11 -45 -13 -78
-1 -32 -5 -57 -9 -54 -5 2 -8 -4 -8 -14 0 -10 -17 -63 -36 -118 -20 -55 -42
-118 -49 -140 -7 -22 -29 -73 -49 -114 -20 -41 -36 -82 -36 -90 0 -9 -7 -27
-15 -39 l-16 -22 63 6 c35 3 93 12 129 21 83 19 110 15 126 -18 12 -25 15 -26
48 -15 19 7 38 15 41 19 4 4 23 7 43 7 20 1 47 7 61 15 l25 15 -30 -6 c-30 -7
-30 -7 -11 14 10 12 23 19 27 16 5 -3 6 1 3 9 -3 8 6 21 21 31 22 15 29 15 43
4 15 -12 16 -11 4 4 -12 15 -11 17 6 15 22 -1 19 -24 -6 -43 -12 -8 -7 -10 19
-6 19 3 37 9 40 14 4 7 9 6 13 0 11 -18 -58 -53 -95 -47 l-34 5 32 -10 c29 -9
40 -7 84 19 28 16 47 31 42 33 -4 3 -2 3 6 1 7 -2 38 15 67 38 56 43 73 64 29
35 -14 -9 -25 -14 -25 -11 0 3 -15 -1 -34 -9 -25 -10 -37 -11 -45 -3 -15 15
-14 27 3 27 7 0 16 9 19 21 5 18 9 19 27 9 12 -6 24 -9 27 -7 2 3 -5 8 -16 12
-12 3 -21 12 -21 18 0 19 83 67 106 61 14 -4 34 6 63 30 24 20 38 36 33 36 -6
0 -14 -4 -17 -10 -3 -5 -21 -10 -40 -10 -19 0 -37 5 -40 10 -10 16 -35 12 -29
-5 5 -11 2 -13 -12 -8 -12 4 -15 3 -10 -5 5 -8 2 -10 -8 -6 -22 8 -20 21 4 27
14 4 18 10 13 23 -6 15 -2 14 26 -5 18 -13 35 -20 39 -16 4 4 1 10 -7 13 -7 2
-21 13 -29 23 -21 24 -39 24 -104 -1 -61 -23 -58 -23 -58 -11 0 4 45 23 100
41 66 22 108 42 122 59 13 14 16 20 8 14 -8 -6 -37 -13 -63 -15 -40 -3 -45 -1
-30 10 16 11 16 13 -5 28 -12 8 -22 22 -22 30 0 12 -11 15 -47 13 -27 -2 -55
-6 -63 -11 -13 -6 -204 -58 -216 -58 -2 0 34 39 81 86 47 48 85 92 85 98 0 6
-4 5 -9 -3 -5 -7 -13 -11 -18 -8 -5 3 -23 -2 -39 -12 -41 -24 -73 -36 -57 -20
6 6 9 17 6 24 -3 10 2 12 19 9 13 -2 16 -1 8 2 -32 14 -41 26 -29 40 16 20 10
17 -50 -22z"/>
<path d="M1299 3025 c-2 -22 -4 -26 -22 -65 -9 -19 -14 -25 -11 -12 3 12 1 22
-5 22 -5 0 -8 14 -6 30 2 17 -1 30 -6 30 -5 0 -9 -15 -10 -32 -3 -124 -10
-242 -18 -298 -11 -77 -7 -190 8 -218 6 -11 7 -22 4 -26 -3 -3 -1 -6 5 -6 6 0
25 -12 43 -27 21 -18 34 -24 37 -15 2 6 11 12 21 12 23 0 241 -97 263 -117 9
-8 38 -19 62 -24 25 -5 72 -19 103 -31 77 -30 80 -50 16 -109 -111 -101 -217
-186 -269 -214 -31 -17 -74 -51 -97 -76 -23 -25 -56 -53 -74 -63 -44 -22 -60
-53 -39 -74 15 -15 12 -18 -27 -37 -81 -39 -53 -97 49 -100 30 -1 60 -8 69
-15 9 -7 15 -8 15 -2 0 5 8 8 18 6 9 -2 34 -5 56 -8 21 -2 43 -10 47 -18 5 -7
9 -8 9 -2 0 7 13 10 33 7 17 -2 50 -6 72 -7 22 -2 42 -4 45 -5 9 -4 244 -1
300 4 30 2 93 8 139 14 46 6 88 8 92 5 5 -3 9 -1 9 3 0 5 8 9 18 10 9 1 46 6
82 13 36 6 88 15 115 20 28 5 102 18 165 30 63 12 127 23 142 25 14 2 42 8 62
15 45 14 116 21 116 10 0 -4 15 -7 33 -5 17 1 42 -1 55 -6 14 -6 31 -5 43 1
10 6 19 7 19 3 0 -4 14 -9 31 -9 17 -1 35 -7 39 -14 6 -10 8 -10 12 0 3 10 9
10 25 1 l22 -11 -19 55 c-11 31 -21 77 -24 103 -3 26 -23 108 -46 182 -22 74
-52 173 -65 220 -27 88 -55 242 -55 298 0 32 0 32 -52 33 -29 0 -62 2 -73 5
-11 2 -35 5 -52 6 -18 2 -33 5 -33 8 0 3 -10 5 -22 6 -31 1 -90 12 -119 22
-13 4 -31 8 -39 7 -8 -1 -19 1 -25 4 -5 3 -16 6 -25 7 -88 13 -218 55 -231 75
-7 12 -9 12 -9 -1 0 -10 -3 -11 -8 -4 -4 6 -14 12 -22 12 -75 6 -157 28 -163
45 -3 7 -6 7 -6 1 -1 -7 -28 -4 -81 9 -69 18 -78 23 -67 36 10 14 10 14 -5 3
-13 -11 -25 -11 -50 -3 -59 18 -182 38 -226 35 -30 -2 -40 1 -35 9 4 8 1 7 -9
-1 -21 -17 -173 -9 -205 11 -6 4 -13 4 -16 0 -2 -5 -2 -2 -1 5 2 6 -8 28 -21
48 -14 20 -25 41 -25 45 0 5 -7 6 -16 2 -8 -3 -13 -12 -10 -19 3 -9 0 -11 -11
-7 -12 5 -15 2 -10 -10 4 -11 2 -14 -9 -10 -18 7 -18 8 3 29 16 16 16 16 -4
10 -24 -8 -38 7 -27 26 5 7 9 19 10 28 1 8 5 27 9 43 5 17 3 27 -4 27 -6 0
-12 -7 -12 -15z"/>
</g>
</svg>
